#!OML:ASF H:\Terrain\Patient Classification 1\Walking\liu\liu.ASF
:FULLY-SPECIFIED
:DEGREES
130
root 9.995788 17.527620 -20.983601 6.770610 8.714618 6.686196
lowerback -9.184571 -4.508537 -7.782797
upperback -1.310991 -5.375733 2.046319
thorax 4.608428 -2.809048 5.846038
lowerneck -21.654711 -6.067853 -14.536059
upperneck 22.606100 -7.121455 12.522071
head 11.754710 -2.977634 5.878048
rclavicle 0.000000 0.000000
rhumerus -52.420170 6.315375 -90.843719
rradius 35.627899
rwrist -21.002190
rhand -34.200321 -21.958420
rfingers 7.837522
rthumb -4.808309 -54.886810
lclavicle 0.000000 0.000000
lhumerus -35.341572 -27.063301 108.469681
lradius 39.022171
lwrist 5.514465
lhand -16.654110 -27.980700
lfingers 7.837522
lthumb 12.132670 4.678575
rfemur -46.573452 9.840051 5.931123
rtibia 30.184879
rfoot -24.510420 -12.288430
rtoes -22.924660
lfemur 22.361900 1.393711 -29.227329
ltibia -0.000000
lfoot -15.090790 -2.245012
ltoes -10.239152
131
root 9.965680 17.500671 -20.805399 6.766023 9.099904 7.000895
lowerback -8.903279 -4.627623 -8.150593
upperback -1.334729 -5.521241 1.994608
thorax 4.474756 -2.881901 5.995880
lowerneck -21.662739 -6.138858 -14.611410
upperneck 22.779570 -7.182934 12.411739
head 11.827089 -3.025110 5.844553
rclavicle -0.000000 0.000000
rhumerus -52.474400 6.146294 -90.769577
rradius 35.162598
rwrist -20.968859
rhand -33.787159 -23.592800
rfingers 7.837522
rthumb -4.409306 -56.528999
lclavicle -0.000000 0.000000
lhumerus -35.714363 -26.148870 108.625771
lradius 38.175388
lwrist 5.321646
lhand -15.399450 -27.185511
lfingers 7.837522
lthumb 13.342560 5.405708
rfemur -46.241032 9.019758 6.112590
rtibia 30.663380
rfoot -23.508541 -11.107250
rtoes -21.658669
lfemur 23.078331 1.321815 -29.189161
ltibia -0.000000
lfoot -14.425401 -2.240524
ltoes -10.722855
132
root 9.932934 17.476030 -20.619831 6.931364 9.210916 6.957302
lowerback -8.971348 -4.596955 -8.147083
upperback -1.362416 -5.478198 2.046759
thorax 4.481499 -2.860374 6.051848
lowerneck -21.781101 -6.222766 -14.806770
upperneck 22.663521 -7.230982 12.477409
head 11.824340 -3.050916 5.890346
rclavicle -0.000000 -0.000000
rhumerus -52.477810 5.800014 -90.598633
rradius 34.679699
rwrist -20.776581
rhand -31.685720 -31.137699
rfingers 7.837522
rthumb -2.379949 -64.103378
lclavicle -0.000000 -0.000000
lhumerus -35.949760 -25.354780 108.806938
lradius 37.068352
lwrist 4.920894
lhand -14.846920 -26.769381
lfingers 7.837522
lthumb 13.875290 5.789630
rfemur -46.285801 8.315813 6.801025
rtibia 31.324369
rfoot -21.587721 -10.728443
rtoes -22.585861
lfemur 23.588509 1.509145 -28.739040
ltibia -0.000000
lfoot -13.939530 -2.578224
ltoes -10.687403
133
root 9.906006 17.471519 -20.427660 7.032080 9.510215 6.731472
lowerback -9.067520 -4.611387 -7.811859
upperback -1.312322 -5.518612 2.042700
thorax 4.565066 -2.879085 5.845312
lowerneck -22.088329 -6.242357 -14.591060
upperneck 22.508530 -7.254060 12.404700
head 11.818070 -3.042072 5.815711
rclavicle 0.000000 -0.000000
rhumerus -52.688023 5.651327 -90.586983
rradius 34.588840
rwrist -20.581110
rhand -28.487030 -38.656971
rfingers 7.837522
rthumb 0.709421 -71.633652
lclavicle 0.000000 -0.000000
lhumerus -36.159969 -24.581039 108.703102
lradius 36.087589
lwrist 4.483941
lhand -14.949770 -26.397799
lfingers 7.837522
lthumb 13.776070 6.167381
rfemur -46.243999 7.254533 7.848291
rtibia 31.986568
rfoot -18.588131 -11.146851
rtoes -25.292299
lfemur 24.124540 1.522653 -28.040319
ltibia 0.000000
lfoot -13.328481 -3.267528
ltoes -8.451784
134
root 9.882818 17.479441 -20.233730 6.965838 9.776019 6.549972
lowerback -8.919285 -4.673317 -7.559629
upperback -1.201255 -5.633419 2.066108
thorax 4.596317 -2.936780 5.717250
lowerneck -22.316580 -6.241543 -14.322109
upperneck 22.232101 -7.244369 12.243991
head 11.742280 -3.026122 5.700882
rclavicle 0.000000 0.000000
rhumerus -52.832890 5.794118 -90.641319
rradius 34.672989
rwrist -20.368040
rhand -29.368570 -37.410122
rfingers 7.837522
rthumb -0.141942 -70.387787
lclavicle 0.000000 0.000000
lhumerus -36.203197 -23.298771 108.425461
lradius 35.043690
lwrist 3.834600
lhand -14.555090 -26.150301
lfingers 7.837522
lthumb 14.156671 6.391187
rfemur -46.125198 6.235680 8.762204
rtibia 32.700909
rfoot -15.434540 -11.320650
rtoes -25.625271
lfemur 24.841520 1.581140 -27.407160
ltibia 0.000000
lfoot -12.438140 -3.826416
ltoes -7.255776
135
root 9.852535 17.487249 -20.044310 6.949415 9.960258 6.180592
lowerback -8.743812 -4.645025 -7.180712
upperback -1.196910 -5.647796 2.224024
thorax 4.486449 -2.936681 5.680400
lowerneck -21.996811 -6.357736 -14.736919
upperneck 21.746340 -7.348616 12.517780
head 11.548130 -3.082178 5.843937
rclavicle 0.000000 0.000000
rhumerus -53.003613 5.823345 -90.573120
rradius 34.649891
rwrist -20.267830
rhand -33.524483 -31.969521
rfingers 7.837522
rthumb -4.155690 -64.910446
lclavicle 0.000000 0.000000
lhumerus -36.402740 -22.116049 108.525230
lradius 33.699490
lwrist 3.087337
lhand -14.761451 -26.321131
lfingers 7.837522
lthumb 13.957680 6.232842
rfemur -46.174812 5.709715 9.621074
rtibia 33.549892
rfoot -12.908609 -11.384120
rtoes -22.479710
lfemur 25.445309 1.744149 -26.661911
ltibia 0.000000
lfoot -11.576070 -3.656169
ltoes -11.353980
136
root 9.818149 17.489450 -19.851480 7.062682 10.124434 5.807076
lowerback -8.869388 -4.543121 -6.658366
upperback -1.186944 -5.548367 2.205753
thorax 4.505941 -2.878964 5.373467
lowerneck -21.820480 -6.479319 -14.948890
upperneck 21.504120 -7.543569 12.859330
head 11.478610 -3.153777 5.970239
rclavicle -0.000000 0.000000
rhumerus -53.269810 5.596833 -90.739220
rradius 34.452438
rwrist -20.669331
rhand -33.484879 -32.571110
rfingers 7.837522
rthumb -4.117498 -65.512695
lclavicle -0.000000 0.000000
lhumerus -36.597992 -21.695848 108.483757
lradius 32.174011
lwrist 2.577960
lhand -15.653330 -26.861120
lfingers 7.837522
lthumb 13.097699 5.744409
rfemur -46.299660 5.232986 10.502657
rtibia 34.492809
rfoot -11.107140 -11.482130
rtoes -21.112740
lfemur 25.832291 1.914231 -25.893341
ltibia -0.000000
lfoot -10.640839 -3.475263
ltoes -14.289770
137
root 9.786656 17.482740 -19.654692 7.114844 10.070984 5.600166
lowerback -8.981610 -4.397877 -6.310458
upperback -1.120493 -5.373093 2.089923
thorax 4.575186 -2.788071 5.071506
lowerneck -22.142780 -6.520272 -14.767611
upperneck 21.448460 -7.655780 13.039729
head 11.535810 -3.160729 5.985771
rclavicle 0.000000 0.000000
rhumerus -53.506969 5.458288 -91.054703
rradius 34.050941
rwrist -20.630831
rhand -30.137470 -35.876389
rfingers 7.837522
rthumb -0.884652 -68.852409
lclavicle 0.000000 0.000000
lhumerus -36.719318 -21.063789 108.181915
lradius 30.775909
lwrist 2.131921
lhand -15.849570 -27.028320
lfingers 7.837522
lthumb 12.908500 5.588132
rfemur -46.460590 4.636511 11.337480
rtibia 35.614372
rfoot -9.594475 -11.069520
rtoes -22.709829
lfemur 26.298910 2.275262 -25.265020
ltibia 0.000000
lfoot -9.734857 -3.669809
ltoes -14.258090
138
root 9.758079 17.468439 -19.468790 7.154554 9.905444 5.414431
lowerback -8.795831 -4.164600 -6.017946
upperback -1.171236 -5.098170 2.067736
thorax 4.358068 -2.640011 4.934864
lowerneck -22.245079 -6.598988 -14.966930
upperneck 21.411280 -7.783413 13.422859
head 11.585310 -3.188152 6.141949
rclavicle -0.000000 -0.000000
rhumerus -53.698372 5.206696 -91.100571
rradius 33.661098
rwrist -19.892950
rhand -28.600000 -36.299118
rfingers 7.837522
rthumb 0.600308 -69.276016
lclavicle -0.000000 -0.000000
lhumerus -37.139519 -19.580660 107.909012
lradius 29.861370
lwrist 1.569183
lhand -15.151730 -26.689409
lfingers 7.837522
lthumb 13.581369 5.887618
rfemur -46.776512 3.939496 12.191190
rtibia 36.913471
rfoot -8.148976 -10.033167
rtoes -24.195490
lfemur 26.774330 2.742663 -24.665409
ltibia 0.000000
lfoot -8.550498 -3.877467
ltoes -14.793460
139
root 9.731975 17.453150 -19.286961 7.202833 9.814408 5.468683
lowerback -8.559937 -4.085785 -6.008541
upperback -1.198076 -5.006529 2.048134
thorax 4.184642 -2.589510 4.936041
lowerneck -22.173691 -6.599516 -15.016760
upperneck 21.335491 -7.793654 13.512840
head 11.552200 -3.188669 6.180724
rclavicle 0.000000 0.000000
rhumerus -53.647221 5.254931 -91.160851
rradius 33.509411
rwrist -19.775801
rhand -29.319731 -33.569031
rfingers 7.837522
rthumb -0.094843 -66.546700
lclavicle 0.000000 0.000000
lhumerus -37.180771 -16.733749 106.991943
lradius 28.871151
lwrist 0.598235
lhand -6.848182 -20.436352
lfingers 7.837522
lthumb 21.577049 11.497089
rfemur -46.986717 3.263590 12.675410
rtibia 38.190681
rfoot -7.083560 -8.758904
rtoes -24.298231
lfemur 27.271530 3.116850 -24.327160
ltibia 0.000000
lfoot -6.805656 -3.963289
ltoes -14.969460
140
root 9.701318 17.448090 -19.099190 7.213767 9.736705 5.626005
lowerback -8.445195 -4.086203 -6.142906
upperback -1.131702 -4.998125 1.961267
thorax 4.192177 -2.588531 4.926031
lowerneck -22.153450 -6.550555 -14.717780
upperneck 21.061920 -7.752283 13.335080
head 11.423940 -3.166603 6.060703
rclavicle 0.000000 0.000000
rhumerus -53.537880 5.430689 -91.329041
rradius 33.311852
rwrist -19.821339
rhand -30.634119 -29.513109
rfingers 7.837522
rthumb -1.364264 -62.486816
lclavicle 0.000000 0.000000
lhumerus -36.948559 -13.751430 105.698013
lradius 27.591629
lwrist -0.581011
lhand -2.490818 -18.328859
lfingers 7.837522
lthumb 25.761780 13.125421
rfemur -47.071751 2.962960 12.844590
rtibia 39.345680
rfoot -6.329158 -7.542425
rtoes -22.507210
lfemur 27.823622 3.470137 -24.107601
ltibia -0.000000
lfoot -5.081516 -3.840485
ltoes -14.281960
141
root 9.665524 17.452271 -18.910099 7.171131 9.520303 5.534848
lowerback -8.250121 -3.888445 -6.011819
upperback -1.157651 -4.754893 1.913560
thorax 4.012646 -2.460271 4.845434
lowerneck -22.121439 -6.654769 -14.715360
upperneck 20.787689 -7.896075 13.401080
head 11.343970 -3.225508 6.053047
rclavicle -0.000000 -0.000000
rhumerus -53.643478 5.028111 -91.100021
rradius 32.968758
rwrist -19.187740
rhand -31.314140 -27.736059
rfingers 7.837522
rthumb -2.021019 -60.705040
lclavicle -0.000000 -0.000000
lhumerus -37.086502 -11.650100 104.739357
lradius 26.553120
lwrist -1.647404
lhand -0.016992 -17.799870
lfingers 7.837522
lthumb 28.133160 13.333320
rfemur -47.115860 2.745039 13.421210
rtibia 40.376602
rfoot -5.603004 -6.566758
rtoes -20.952030
lfemur 28.343370 3.982187 -23.631191
ltibia -0.000000
lfoot -3.385778 -3.526798
ltoes -14.533641
142
root 9.630148 17.461180 -18.720570 7.182802 9.322763 5.393850
lowerback -8.036743 -3.731475 -5.896407
upperback -1.230383 -4.569686 1.970298
thorax 3.791337 -2.359995 4.876630
lowerneck -21.956219 -6.795327 -15.117849
upperneck 20.376289 -8.047809 13.786960
head 11.223300 -3.287416 6.229674
rclavicle -0.000000 0.000000
rhumerus -53.725540 4.877323 -90.865723
rradius 32.701790
rwrist -18.755110
rhand -31.507740 -28.478449
rfingers 7.837522
rthumb -2.208008 -61.445778
lclavicle -0.000000 0.000000
lhumerus -37.601631 -9.825794 104.086403
lradius 25.189671
lwrist -4.907034
lhand -3.661361 -20.669550
lfingers 7.837522
lthumb 24.638571 10.923979
rfemur -46.999039 2.312343 14.218160
rtibia 41.225143
rfoot -5.319083 -5.913006
rtoes -21.607630
lfemur 28.791620 4.474657 -23.096811
ltibia -0.000000
lfoot -1.605637 -3.331669
ltoes -16.168459
143
root 9.594596 17.480541 -18.533791 7.368306 9.287157 5.284345
lowerback -7.957598 -3.727603 -5.803820
upperback -1.300981 -4.578541 2.018709
thorax 3.671668 -2.359016 4.880645
lowerneck -21.828949 -6.807823 -15.266350
upperneck 20.032759 -8.040901 13.936780
head 11.089760 -3.282488 6.302274
rclavicle 0.000000 -0.000000
rhumerus -53.457249 4.946535 -90.889046
rradius 32.198101
rwrist -18.548639
rhand -29.905701 -34.323521
rfingers 7.837522
rthumb -0.660724 -67.300308
lclavicle 0.000000 -0.000000
lhumerus -38.003242 -7.985263 103.267776
lradius 23.988581
lwrist -6.630591
lhand -11.433840 -25.999599
lfingers 7.837522
lthumb 17.164181 6.330027
rfemur -46.868137 1.997248 14.843181
rtibia 41.931122
rfoot -5.631285 -5.416873
rtoes -21.648109
lfemur 29.080372 4.804668 -22.613800
ltibia 0.000000
lfoot 0.365336 -3.117510
ltoes -17.401890
